<?xml version="1.0" standalone="no"?>
<!DOCTYPE svg PUBLIC "-//W3C//DTD SVG 20010904//EN"
 "http://www.w3.org/TR/2001/REC-SVG-20010904/DTD/svg10.dtd">
<svg version="1.0" xmlns="http://www.w3.org/2000/svg"
 width="315.000000pt" height="356.000000pt" viewBox="0 0 315.000000 356.000000"
 preserveAspectRatio="xMidYMid meet">

<g transform="translate(0.000000,356.000000) scale(0.100000,-0.100000)"
fill="#000000" stroke="none">
<path d="M70 3096 l0 -463 88 -6 c122 -7 226 2 211 19 -6 7 -8 18 -5 23 4 5 2
12 -3 16 -6 3 -8 12 -5 20 3 8 -13 51 -37 97 -23 46 -49 95 -56 110 -8 15 -12
32 -9 36 4 7 330 6 560 -1 l49 -2 1 62 1 62 -40 0 c-22 0 -74 2 -115 5 -45 3
-79 1 -87 -6 -7 -5 -36 -11 -65 -13 -29 -1 -62 -5 -73 -9 -37 -14 -45 -15 -45
-7 0 5 -60 7 -135 4 -124 -4 -135 -3 -135 13 0 10 -7 26 -16 36 -14 14 -14 20
-4 33 7 8 20 15 29 16 9 0 3 5 -14 10 -32 9 -57 48 -44 70 11 20 -1 69 -17 69
-9 0 -14 12 -14 34 0 37 19 60 42 51 11 -4 15 2 15 27 0 17 5 34 11 36 17 5
15 22 -3 22 -8 0 -19 9 -25 20 -9 16 -8 20 5 20 19 0 20 16 0 24 -8 3 -12 12
-9 21 5 11 -1 15 -25 15 l-31 0 0 -464z"/>
<path d="M1195 3512 c4 -48 1 -58 -32 -105 -19 -29 -48 -66 -64 -82 -29 -31
-34 -59 -42 -242 -1 -22 -5 -39 -9 -36 -5 2 -8 -3 -8 -11 0 -9 5 -16 11 -16 5
0 7 -5 4 -11 -4 -6 2 -13 13 -16 11 -2 23 -12 26 -21 3 -10 9 -23 12 -31 5
-10 0 -12 -24 -7 -41 10 -49 -22 -17 -69 22 -31 23 -37 10 -61 -17 -33 -9 -57
16 -51 11 3 22 1 25 -4 3 -5 -9 -12 -26 -16 -17 -3 -37 -15 -43 -25 -7 -11
-34 -32 -62 -46 l-50 -27 150 -6 c83 -4 201 -7 263 -8 l112 -1 0 470 0 470
-115 0 -115 0 11 -26 c5 -15 8 -29 5 -31 -2 -3 -7 5 -11 16 -3 11 -12 18 -20
15 -7 -3 -16 3 -19 13 -3 10 -3 -6 -1 -35z m-65 -447 c11 7 7 -22 -5 -32 -4
-4 -5 -3 -1 4 3 7 -2 14 -14 18 -12 4 -20 15 -20 28 l0 21 16 -22 c8 -12 19
-20 24 -17z"/>
<path d="M465 3290 c3 -5 8 -10 11 -10 2 0 4 5 4 10 0 6 -5 10 -11 10 -5 0 -7
-4 -4 -10z"/>
<path d="M368 3143 c7 -3 16 -2 19 1 4 3 -2 6 -13 5 -11 0 -14 -3 -6 -6z"/>
<path d="M1602 3108 c-20 -20 -14 -34 23 -63 29 -22 34 -29 24 -41 -7 -8 -20
-12 -30 -9 -11 4 -19 2 -19 -5 0 -7 13 -10 33 -8 26 2 33 8 35 29 2 20 -4 32
-27 49 -17 12 -31 26 -31 31 0 13 34 11 48 -3 9 -9 12 -8 12 4 0 9 -10 18 -22
22 -31 8 -32 8 -46 -6z"/>
<path d="M1712 3050 c-24 -53 -27 -70 -16 -70 8 0 14 9 14 20 0 16 7 20 35 20
32 0 40 -7 36 -32 0 -5 6 -8 14 -8 8 0 15 2 15 5 0 9 -59 135 -63 135 -2 0
-18 -31 -35 -70z m48 -2 c0 -5 -7 -8 -15 -8 -17 0 -18 2 -9 25 5 13 8 14 15 3
5 -7 9 -16 9 -20z"/>
<path d="M1830 3050 c0 -49 4 -70 13 -70 8 0 11 15 9 50 -2 27 0 50 4 50 4 0
29 -24 55 -52 l48 -53 1 57 c0 31 3 63 6 72 4 10 1 16 -9 16 -11 0 -13 -10 -9
-45 3 -28 1 -45 -6 -45 -6 0 -28 20 -50 45 -22 25 -45 45 -51 45 -7 0 -11 -25
-11 -70z"/>
<path d="M2016 3099 c-52 -41 -21 -119 47 -119 65 0 97 82 48 122 -30 24 -62
23 -95 -3z m90 -24 c33 -50 -20 -104 -71 -71 -27 18 -34 63 -13 84 21 21 66
14 84 -13z"/>
<path d="M2221 3076 c22 -32 30 -52 27 -70 -4 -18 -1 -26 8 -26 9 0 14 12 14
31 0 20 11 45 31 70 19 25 26 39 17 39 -8 0 -22 -13 -31 -30 -10 -16 -22 -30
-27 -30 -5 0 -17 14 -27 30 -9 17 -23 30 -31 30 -8 0 -2 -16 19 -44z"/>
<path d="M2390 3050 c0 -40 4 -70 10 -70 6 0 10 17 10 37 l0 36 25 -23 c14
-13 25 -29 25 -37 0 -7 7 -13 16 -13 17 0 12 13 -18 46 -17 19 -17 22 -4 27
21 8 21 53 0 61 -9 3 -27 6 -40 6 -23 0 -24 -3 -24 -70z m58 33 c-5 -26 -38
-29 -38 -4 0 15 6 21 21 21 14 0 19 -5 17 -17z"/>
<path d="M2510 3050 c0 -49 4 -70 13 -70 8 0 12 21 12 70 0 49 -4 70 -12 70
-9 0 -13 -21 -13 -70z"/>
<path d="M2583 3105 c-45 -32 -34 -101 21 -126 18 -8 31 -7 55 5 17 9 31 21
31 26 0 5 -13 2 -29 -8 -37 -21 -77 -5 -87 33 -12 47 51 86 84 53 9 -9 12 -8
12 4 0 29 -52 37 -87 13z"/>
<path d="M2729 3102 c-49 -40 -17 -122 48 -122 68 0 99 78 47 119 -33 26 -65
27 -95 3z m85 -18 c31 -31 10 -94 -32 -94 -22 0 -62 39 -62 61 0 25 27 49 55
49 13 0 31 -7 39 -16z"/>
<path d="M930 3090 l-45 -6 43 -8 c23 -4 42 -12 42 -17 0 -5 14 -9 30 -9 17 0
30 4 30 10 0 19 -55 36 -100 30z"/>
<path d="M2870 3040 c0 -33 4 -60 9 -60 4 0 9 27 10 60 1 36 -3 60 -9 60 -6 0
-10 -25 -10 -60z"/>
<path d="M910 2860 c0 -5 5 -10 10 -10 6 0 10 5 10 10 0 6 -4 10 -10 10 -5 0
-10 -4 -10 -10z"/>
<path d="M650 2759 c0 -5 5 -7 10 -4 6 3 10 8 10 11 0 2 -4 4 -10 4 -5 0 -10
-5 -10 -11z"/>
<path d="M2762 2552 c-53 -3 -63 -6 -60 -20 2 -12 13 -17 38 -17 25 0 41 -7
54 -24 19 -23 19 -24 0 -37 -47 -33 -49 -37 -18 -47 16 -6 32 -14 35 -20 4 -5
12 -7 18 -3 6 4 21 0 33 -8 13 -8 39 -17 58 -20 19 -3 69 -14 109 -25 41 -11
79 -18 83 -15 4 3 8 58 8 123 l0 118 -147 -1 c-82 -1 -176 -2 -211 -4z"/>
<path d="M1198 2514 c-3 -16 -4 -85 -3 -154 1 -104 5 -131 21 -155 16 -26 16
-28 1 -16 -15 12 -17 11 -17 -8 0 -14 6 -21 20 -21 11 0 20 -7 20 -15 0 -8 9
-19 20 -25 11 -6 20 -18 20 -27 0 -13 -3 -14 -12 -5 -7 7 -17 12 -23 12 -5 0
-3 -5 5 -10 11 -7 7 -10 -17 -10 l-33 0 0 -58 0 -57 37 -12 c26 -8 42 -8 50
-1 14 11 33 3 33 -16 0 -31 134 -111 185 -111 20 0 30 -5 30 -15 0 -8 14 -19
32 -24 17 -6 34 -18 36 -28 6 -22 -3 -23 -51 -2 -20 10 -41 18 -47 19 -24 4
-82 35 -99 54 -10 11 -24 17 -34 14 -9 -4 -13 -2 -9 4 6 10 -31 52 -39 44 -3
-1 -17 2 -32 7 -15 6 -40 13 -56 17 -24 5 -27 8 -15 16 12 9 12 10 -1 6 -8 -2
-15 -11 -15 -20 0 -8 -3 -18 -6 -22 -11 -11 3 -56 16 -51 8 3 16 -2 19 -10 4
-12 1 -14 -14 -9 -19 6 -20 2 -20 -95 0 -75 3 -100 13 -98 16 3 88 -21 106
-36 8 -6 16 -10 18 -8 5 5 66 -9 78 -18 9 -6 112 -33 173 -45 11 -2 29 -8 39
-13 10 -6 21 -10 26 -11 4 0 21 -8 37 -16 17 -9 34 -13 39 -11 5 3 14 -1 21
-9 7 -8 17 -15 22 -15 5 0 49 -19 96 -43 48 -23 105 -48 127 -56 22 -8 60 -23
85 -34 25 -10 61 -21 80 -23 19 -1 73 -7 120 -11 99 -10 212 -9 229 1 16 10
61 -1 61 -15 0 -8 4 -8 13 -1 15 13 43 10 58 -5 7 -7 22 -8 39 -3 15 4 34 4
41 -1 8 -5 23 -9 33 -9 11 0 27 -7 36 -15 22 -20 47 -10 65 26 19 35 19 44 -1
63 -14 15 -13 16 8 14 13 -2 26 -7 29 -12 4 -5 17 -6 30 -3 28 7 58 49 40 55
-6 2 -9 8 -5 13 3 5 0 9 -7 9 -8 0 -10 15 -6 49 4 33 1 52 -6 56 -7 3 -2 3 10
1 17 -3 20 0 15 13 -5 14 -3 14 11 3 14 -12 19 -12 32 1 8 9 15 20 15 26 0 6
7 11 15 11 8 0 15 4 15 10 0 5 16 12 35 16 19 3 35 12 35 19 0 15 -47 48 -59
41 -4 -3 -17 1 -27 9 -19 13 -18 14 4 37 27 30 28 38 3 38 -10 0 -24 7 -31 15
-9 10 -9 15 -1 15 6 0 11 7 11 15 0 18 -16 20 -23 3 -3 -9 -9 -7 -19 6 -8 10
-20 16 -26 12 -7 -4 -12 -3 -12 3 0 5 -19 12 -42 16 -24 4 -51 12 -61 17 -25
13 -65 21 -104 20 -24 0 -33 4 -33 16 0 10 -3 13 -8 7 -11 -16 -33 -17 -51 -2
-27 22 -68 40 -78 34 -14 -9 -162 49 -187 72 -12 12 -26 21 -30 21 -4 0 -42
17 -84 37 -42 20 -79 37 -82 38 -3 1 -21 8 -40 15 -19 8 -35 12 -35 10 0 -2
-19 9 -42 23 -24 15 -46 27 -49 27 -4 0 -27 16 -50 36 -37 30 -44 32 -44 17 0
-11 5 -24 12 -31 20 -20 -17 -15 -54 7 -17 11 -35 18 -40 15 -5 -3 -7 -1 -6 4
3 10 -55 62 -70 62 -6 0 -28 16 -49 35 -21 19 -45 35 -53 35 -9 0 -26 7 -38
16 -12 8 -22 11 -22 5 0 -5 6 -14 13 -18 6 -4 19 -17 27 -28 15 -20 15 -20
-10 0 -14 11 -35 28 -48 39 -12 11 -30 21 -39 22 -9 2 -26 12 -37 24 l-21 22
22 -11 c34 -17 41 -13 13 9 -28 22 -80 27 -80 8 0 -9 -3 -9 -12 0 -7 7 -22 12
-34 12 -12 0 -41 19 -66 45 -25 25 -51 45 -59 45 -10 0 -10 -3 -1 -12 16 -16
15 -28 -2 -28 -8 0 -25 14 -39 31 l-24 31 -5 -28z m98 -89 c10 -8 14 -15 8
-15 -5 0 -19 7 -30 15 -10 8 -14 15 -8 15 5 0 19 -7 30 -15z m89 -123 c-3 -3
-11 0 -18 7 -9 10 -8 11 6 5 10 -3 15 -9 12 -12z m342 -68 c21 -20 22 -22 4
-17 -10 3 -30 16 -42 29 -19 21 -20 24 -5 18 10 -4 29 -17 43 -30z m-85 12
c10 -7 15 -16 12 -19 -9 -8 -44 11 -44 23 0 13 12 12 32 -4z m-351 -63 c13
-16 12 -17 -3 -4 -10 7 -18 15 -18 17 0 8 8 3 21 -13z m-16 -33 c3 -5 2 -10
-4 -10 -5 0 -13 5 -16 10 -3 6 -2 10 4 10 5 0 13 -4 16 -10z m245 -10 c0 -5
-7 -7 -15 -4 -8 4 -12 10 -9 15 6 11 24 2 24 -11z m40 -10 c0 -5 -2 -10 -4
-10 -3 0 -8 5 -11 10 -3 6 -1 10 4 10 6 0 11 -4 11 -10z m378 -9 c3 -8 -1 -12
-9 -9 -7 2 -15 10 -17 17 -3 8 1 12 9 9 7 -2 15 -10 17 -17z m-328 -22 c0 -14
-17 -10 -23 5 -4 10 -1 13 9 9 7 -3 14 -9 14 -14z m380 -4 c0 -12 -29 -3 -34
10 -4 13 -2 14 14 5 11 -6 20 -13 20 -15z m-625 -1 c19 -14 18 -15 -13 -12
-18 1 -32 8 -32 15 0 17 20 16 45 -3z m375 -4 c0 -5 -8 -10 -17 -10 -15 0 -16
2 -3 10 19 12 20 12 20 0z m-125 -21 c11 -17 -1 -21 -15 -4 -8 9 -8 15 -2 15
6 0 14 -5 17 -11z m65 2 c0 -10 -26 -9 -36 2 -4 4 2 7 14 7 12 0 22 -4 22 -9z
m395 -1 c3 -5 -1 -10 -10 -10 -9 0 -13 5 -10 10 3 6 8 10 10 10 2 0 7 -4 10
-10z m-656 -15 c6 -3 11 -11 11 -16 0 -6 -4 -7 -10 -4 -5 3 -10 2 -10 -4 0 -6
-7 -8 -15 -5 -8 4 -13 9 -11 13 2 3 -7 7 -20 7 -15 1 -24 -4 -24 -12 0 -8 -4
-14 -10 -14 -13 0 -13 17 0 25 6 4 8 11 4 16 -6 11 67 6 85 -6z m425 -27 c51
-29 54 -33 35 -40 -12 -5 -30 -6 -40 -3 -11 4 -19 2 -19 -4 0 -6 9 -11 19 -11
11 0 23 -4 26 -10 4 -6 -1 -7 -12 -3 -15 5 -16 3 -5 -8 17 -18 15 -49 -3 -49
-8 0 -15 -9 -15 -20 0 -11 7 -20 16 -20 8 0 13 -4 9 -9 -3 -6 -17 -6 -35 1
-17 5 -28 13 -26 17 3 3 -5 18 -15 31 -18 22 -19 22 -10 3 15 -29 14 -36 -4
-29 -10 4 -15 -1 -16 -17 0 -12 -3 -16 -6 -9 -2 6 -12 12 -21 11 -11 0 -12 -2
-4 -6 6 -2 12 -11 12 -18 0 -7 6 -13 13 -12 51 2 77 -4 77 -18 0 -8 6 -15 14
-15 8 0 16 -6 19 -14 3 -7 16 -13 29 -12 35 3 40 -3 20 -25 -17 -18 -21 -18
-54 -5 -20 9 -49 26 -65 40 -16 13 -47 28 -68 32 -22 4 -35 9 -28 11 16 6 5
33 -13 33 -18 0 -57 22 -67 38 -4 6 -13 12 -18 12 -6 0 -7 -6 -4 -12 4 -7 -3
-2 -14 11 -20 22 -20 48 0 36 5 -4 9 4 9 16 0 12 3 19 7 16 3 -4 11 -2 18 3 7
6 23 6 43 0 39 -10 44 6 7 20 -36 14 -31 24 9 17 28 -4 34 -3 29 9 -6 16 12
19 22 4 8 -13 35 -13 35 1 0 5 -4 8 -9 5 -5 -3 -14 0 -20 8 -9 11 -9 15 1 19
31 13 70 5 122 -25z m176 22 c0 -5 -4 -10 -10 -10 -5 0 -10 5 -10 10 0 6 5 10
10 10 6 0 10 -4 10 -10z m-505 -62 c7 -7 2 -8 -15 -3 -14 4 -29 12 -35 17 -7
7 -2 8 15 3 14 -4 30 -12 35 -17z m375 -98 c-9 -6 -7 -11 6 -19 11 -6 14 -11
7 -11 -6 0 -15 5 -18 10 -3 6 -16 10 -28 10 -21 1 -21 1 3 14 25 14 53 10 30
-4z m214 -10 c22 -17 36 -30 32 -30 -13 0 -62 29 -75 44 -21 25 1 18 43 -14z
m-829 10 c3 -5 1 -10 -4 -10 -6 0 -11 5 -11 10 0 6 2 10 4 10 3 0 8 -4 11 -10z
m655 -10 c0 -5 -2 -10 -4 -10 -3 0 -8 5 -11 10 -3 6 -1 10 4 10 6 0 11 -4 11
-10z m-340 -14 c0 -3 -4 -8 -10 -11 -5 -3 -10 -1 -10 4 0 6 5 11 10 11 6 0 10
-2 10 -4z m407 -38 c7 -12 9 -17 12 -37 1 -9 40 -26 85 -36 21 -4 26 -9 17
-14 -17 -11 2 -23 23 -15 17 7 22 -11 6 -21 -5 -3 -10 -10 -10 -15 0 -11 54
-2 58 11 2 5 8 7 13 3 5 -3 9 4 9 15 0 12 4 21 9 21 14 0 20 -25 10 -41 -5 -8
-6 -22 -3 -31 6 -20 0 -21 -69 -12 -33 5 -44 10 -40 20 3 8 0 14 -7 14 -6 0
-8 5 -5 10 3 6 2 10 -4 10 -5 0 -13 9 -16 20 -3 11 -11 20 -16 20 -6 0 -7 -6
-3 -12 4 -7 -2 -5 -13 5 -26 23 -33 22 -33 -6 0 -15 -6 -23 -20 -24 -11 -1
-22 2 -25 8 -4 5 0 9 8 9 8 0 17 7 21 15 3 8 2 14 -2 14 -25 -4 -40 4 -45 22
-5 17 -2 20 13 16 24 -6 32 14 11 30 -10 8 -11 12 -4 13 6 0 15 -6 20 -12z
m-107 -48 c0 -5 -7 -7 -15 -4 -8 4 -15 8 -15 10 0 2 7 4 15 4 8 0 15 -4 15
-10z m-626 -11 c-4 -8 1 -9 17 -5 l24 6 -23 -12 c-24 -12 -38 -6 -27 11 3 6 8
11 11 11 3 0 2 -5 -2 -11z m971 2 c3 -5 1 -12 -5 -16 -5 -3 -10 1 -10 9 0 18
6 21 15 7z m-481 -44 c31 -13 64 -34 73 -46 14 -21 14 -24 -2 -39 -10 -10 -15
-12 -12 -7 3 6 -8 10 -24 10 l-29 0 23 -17 c21 -16 37 -22 96 -33 58 -11 122
-38 131 -56 6 -10 19 -19 30 -19 10 0 21 -6 24 -12 3 -9 8 -8 16 5 6 9 15 15
20 12 5 -3 17 6 26 19 13 21 19 24 36 15 13 -7 17 -16 13 -27 -5 -13 -3 -14 6
-5 7 7 19 9 34 3 13 -5 26 -6 29 -3 3 4 6 -3 6 -15 0 -11 5 -24 12 -28 6 -4 8
-3 4 4 -3 6 -1 14 5 18 7 4 9 3 6 -2 -7 -12 1 -24 28 -44 19 -14 19 -14 6 3
-8 9 -11 20 -8 24 4 3 12 -7 19 -23 14 -30 46 -48 34 -19 -3 9 -2 13 4 10 6
-3 10 -13 10 -21 0 -11 6 -13 21 -9 13 5 19 3 15 -3 -3 -5 4 -12 15 -15 12 -3
18 -10 14 -16 -10 -17 2 -13 21 7 17 16 17 16 11 0 -3 -10 -2 -20 3 -23 6 -4
10 2 10 12 1 17 1 17 15 -1 7 -10 18 -15 24 -11 6 3 11 2 11 -4 0 -5 9 -13 21
-16 28 -9 22 -13 -47 -31 -104 -28 -311 -9 -463 42 -90 30 -302 146 -290 159
7 7 203 -45 232 -61 34 -19 51 -8 42 28 -5 20 -13 25 -48 27 -23 1 -43 5 -45
10 -1 4 -15 6 -31 5 -21 -1 -28 2 -24 11 3 10 -5 13 -29 13 -43 -2 -90 9 -98
21 -3 6 -27 9 -53 7 -26 -3 -45 -1 -42 4 3 5 -1 11 -7 14 -7 3 -3 3 10 0 18
-4 25 -1 29 15 3 12 12 21 19 21 8 0 14 9 14 20 0 11 -5 20 -12 20 -14 0 -78
42 -78 52 0 7 24 15 51 17 8 0 41 -9 73 -22z m296 2 c0 -5 -4 -9 -10 -9 -5 0
-10 7 -10 16 0 8 5 12 10 9 6 -3 10 -10 10 -16z m-716 2 c3 -5 0 -11 -7 -14
-8 -3 -14 1 -14 9 0 16 13 19 21 5z m1574 -6 c17 -4 32 -11 32 -15 0 -9 -87
13 -98 26 -4 3 2 4 13 1 11 -3 35 -8 53 -12z m-1469 -17 c8 3 11 0 7 -7 -4 -7
1 -11 13 -11 11 0 23 -4 26 -10 10 -16 -47 -5 -92 19 -53 27 -55 34 -5 17 20
-7 43 -11 51 -8z m641 -13 c0 -8 -2 -15 -4 -15 -2 0 -6 7 -10 15 -3 8 -1 15 4
15 6 0 10 -7 10 -15z m-144 -40 c10 -8 14 -15 8 -15 -5 0 -19 7 -30 15 -10 8
-14 15 -8 15 5 0 19 -7 30 -15z m-252 -10 c-4 -8 -10 -12 -15 -9 -11 6 -2 24
11 24 5 0 7 -7 4 -15z m-94 -16 c0 -5 -11 -9 -25 -9 -24 0 -32 10 -19 22 8 8
44 -3 44 -13z m960 0 c0 -6 -4 -7 -10 -4 -5 3 -10 11 -10 16 0 6 5 7 10 4 6
-3 10 -11 10 -16z m-690 7 c0 -2 -7 -7 -16 -10 -8 -3 -12 -2 -9 4 6 10 25 14
25 6z m-230 -16 c0 -5 -4 -10 -9 -10 -6 0 -13 5 -16 10 -3 6 1 10 9 10 9 0 16
-4 16 -10z m494 -17 c-8 -36 -22 -52 -32 -37 -9 14 -62 24 -62 12 0 -5 -9 -4
-19 2 -11 5 -33 10 -50 10 -17 0 -31 4 -31 9 0 5 -12 12 -27 15 -16 2 -3 3 27
2 30 -2 63 -7 73 -11 12 -5 17 -3 17 9 0 13 11 16 55 16 55 0 55 0 49 -27z
m793 -89 c-3 -3 -12 -4 -19 -1 -8 3 -5 6 6 6 11 1 17 -2 13 -5z"/>
<path d="M1750 1992 c0 -5 11 -14 25 -20 14 -6 25 -10 25 -8 0 2 -11 11 -25
20 -14 9 -25 13 -25 8z"/>
<path d="M1690 1960 c0 -5 15 -10 33 -9 27 0 29 2 12 9 -28 12 -45 12 -45 0z"/>
<path d="M1590 1935 c0 -8 2 -15 4 -15 2 0 6 7 10 15 3 8 1 15 -4 15 -6 0 -10
-7 -10 -15z"/>
<path d="M1675 1880 c-3 -5 1 -10 10 -10 9 0 13 5 10 10 -3 6 -8 10 -10 10 -2
0 -7 -4 -10 -10z"/>
<path d="M1771 1584 c0 -11 3 -14 6 -6 3 7 2 16 -1 19 -3 4 -6 -2 -5 -13z"/>
<path d="M1818 1573 c7 -3 16 -2 19 1 4 3 -2 6 -13 5 -11 0 -14 -3 -6 -6z"/>
<path d="M2220 1510 c0 -5 5 -10 11 -10 5 0 7 5 4 10 -3 6 -8 10 -11 10 -2 0
-4 -4 -4 -10z"/>
<path d="M2649 2513 c-13 -16 -12 -17 4 -4 16 13 21 21 13 21 -2 0 -10 -8 -17
-17z"/>
<path d="M2003 2464 c13 -22 105 -58 192 -75 52 -10 106 -25 122 -34 18 -10
21 -14 8 -11 -11 2 -42 7 -70 11 -27 4 -58 11 -68 17 -10 5 -21 7 -24 5 -2 -3
34 -26 81 -52 79 -43 86 -49 91 -83 4 -20 11 -47 16 -59 20 -50 33 -73 40 -73
12 0 41 52 43 77 0 13 8 25 16 28 8 3 21 14 28 26 12 18 12 23 0 30 -9 6 -7 9
9 9 12 0 39 16 60 36 l38 37 -42 12 c-40 12 -121 28 -153 30 -8 0 -33 6 -55
12 -22 7 -51 12 -65 11 -14 0 -38 3 -55 6 -16 4 -41 8 -55 9 -14 1 -30 6 -37
10 -6 4 -29 9 -50 11 -21 2 -47 7 -57 12 -12 4 -17 4 -13 -2z"/>
<path d="M1816 2377 c3 -10 9 -15 12 -12 3 3 0 11 -7 18 -10 9 -11 8 -5 -6z"/>
<path d="M1205 2141 c-6 -11 13 -26 22 -17 4 3 1 6 -6 6 -7 0 -9 5 -6 10 3 6
4 10 1 10 -3 0 -7 -4 -11 -9z"/>
<path d="M113 1843 c-4 -11 1 -22 15 -31 28 -19 30 -46 2 -39 -11 3 -20 1 -20
-4 0 -5 11 -9 25 -9 35 0 44 28 17 51 -30 24 -29 44 1 28 20 -11 21 -11 8 4
-17 22 -40 22 -48 0z"/>
<path d="M208 1835 c-24 -46 -31 -75 -19 -75 6 0 11 7 11 15 0 21 37 19 49 -2
21 -38 19 -4 -3 42 l-23 50 -15 -30z m22 -25 c0 -5 -4 -10 -10 -10 -5 0 -10 5
-10 10 0 6 5 10 10 10 6 0 10 -4 10 -10z"/>
<path d="M280 1810 c0 -27 4 -50 8 -50 4 0 6 17 4 38 l-4 37 40 -39 40 -38 3
51 c2 28 1 51 -3 51 -5 0 -8 -13 -8 -30 0 -16 -3 -30 -6 -30 -3 0 -17 14 -31
30 -13 17 -29 30 -34 30 -5 0 -9 -22 -9 -50z"/>
<path d="M390 1810 c0 -48 1 -50 28 -50 15 0 33 5 40 12 30 30 -1 88 -46 88
-20 0 -22 -5 -22 -50z m55 -5 c0 -20 -6 -31 -17 -33 -15 -3 -18 4 -18 33 0 29
3 36 18 33 11 -2 17 -13 17 -33z"/>
<path d="M480 1850 c0 -19 41 -92 48 -85 4 3 12 21 18 38 l11 32 19 -37 c10
-21 20 -38 24 -38 3 0 12 17 19 38 8 20 16 43 18 50 3 6 0 12 -6 12 -6 0 -11
-4 -11 -9 0 -5 -5 -22 -11 -38 l-11 -28 -15 38 c-8 20 -19 37 -23 37 -4 0 -14
-17 -22 -37 l-14 -38 -14 38 c-13 35 -30 50 -30 27z"/>
<path d="M650 1810 c0 -27 5 -50 10 -50 6 0 10 23 10 50 0 28 -4 50 -10 50 -5
0 -10 -22 -10 -50z"/>
<path d="M701 1841 c-24 -24 -26 -40 -8 -65 15 -21 78 -19 85 2 3 11 1 11 -17
0 -27 -17 -56 0 -56 33 0 20 5 24 33 24 35 0 39 18 4 23 -11 2 -30 -6 -41 -17z"/>
<path d="M790 1810 c0 -27 5 -50 10 -50 6 0 10 11 10 25 0 21 5 25 30 25 25 0
30 -4 30 -25 0 -14 5 -25 10 -25 6 0 10 23 10 50 0 28 -4 50 -10 50 -5 0 -10
-9 -10 -20 0 -16 -7 -20 -30 -20 -23 0 -30 4 -30 20 0 11 -4 20 -10 20 -5 0
-10 -22 -10 -50z"/>
<path d="M910 1810 l0 -50 33 1 c31 2 31 2 4 6 -35 5 -34 38 1 37 12 0 22 3
22 8 0 4 -11 8 -25 8 -14 0 -25 5 -25 10 0 19 49 10 74 -14 31 -28 34 -50 6
-43 -11 3 -20 1 -20 -4 0 -5 11 -9 25 -9 35 0 44 28 17 51 -30 24 -29 44 1 28
19 -11 20 -10 10 3 -8 9 -33 15 -68 16 l-55 1 0 -49z"/>
<path d="M3097 1831 c-5 -22 1 -33 14 -25 12 7 12 44 0 44 -5 0 -11 -9 -14
-19z"/>
<path d="M3077 1774 c-11 -11 5 -34 24 -34 12 0 19 7 19 20 0 19 -28 28 -43
14z"/>
<path d="M240 1640 c0 -46 2 -50 23 -50 31 0 47 18 47 52 0 28 -23 48 -54 48
-12 0 -16 -11 -16 -50z m55 10 c7 -23 -10 -50 -31 -50 -9 0 -14 12 -14 35 0
28 4 35 19 35 11 0 23 -9 26 -20z"/>
<path d="M320 1640 l0 -50 38 1 c30 2 32 3 10 6 -20 3 -28 10 -28 25 0 16 5
19 25 16 14 -3 25 -1 25 3 0 5 -11 9 -25 9 -14 0 -25 5 -25 10 0 6 11 10 25
10 14 0 25 5 25 10 0 6 -16 10 -35 10 l-35 0 0 -50z"/>
<path d="M438 1640 c-1 -28 0 -50 5 -50 4 0 7 11 7 24 0 29 18 44 26 22 9 -22
19 -20 31 6 9 21 10 20 17 -15 4 -20 11 -37 17 -37 6 0 8 4 5 8 -3 5 -6 27 -7
50 -3 47 -11 52 -33 20 l-16 -22 -16 22 c-23 33 -32 27 -36 -28z"/>
<path d="M560 1640 c0 -27 5 -50 10 -50 6 0 10 23 10 50 0 28 -4 50 -10 50 -5
0 -10 -22 -10 -50z"/>
<path d="M618 1679 c-22 -12 -24 -62 -4 -78 24 -20 70 -10 74 17 2 12 -1 22
-7 22 -6 0 -11 -9 -11 -20 0 -24 -31 -27 -50 -5 -26 31 17 79 48 53 13 -11 14
-10 10 2 -6 18 -37 23 -60 9z"/>
<path d="M728 1665 c-24 -46 -31 -75 -19 -75 6 0 11 7 11 15 0 21 37 19 49 -2
21 -38 19 -4 -3 42 l-23 50 -15 -30z m22 -25 c0 -5 -4 -10 -10 -10 -5 0 -10 5
-10 10 0 6 5 10 10 10 6 0 10 -4 10 -10z"/>
<path d="M830 1683 c0 -5 7 -17 15 -27 8 -11 15 -30 15 -43 0 -13 5 -23 10
-23 6 0 10 10 10 22 0 12 10 32 22 45 12 13 19 26 15 29 -4 4 -15 -4 -25 -17
l-19 -23 -14 22 c-13 21 -29 29 -29 15z"/>
<path d="M1200 1513 c0 -8 11 -28 25 -45 14 -16 25 -36 25 -43 0 -8 26 -33 58
-57 31 -23 73 -56 92 -74 64 -58 131 -104 152 -104 20 0 21 1 3 20 -10 11 -23
20 -28 20 -11 0 -144 107 -155 124 -4 7 -29 28 -55 46 -54 38 -87 88 -67 100
8 5 1 11 -19 18 -26 9 -31 8 -31 -5z"/>
<path d="M300 1470 c0 -27 5 -50 10 -50 6 0 10 9 10 20 0 11 6 20 14 20 7 0
19 7 26 15 17 20 -3 45 -36 45 -22 0 -24 -4 -24 -50z m50 21 c0 -5 -7 -11 -15
-15 -9 -3 -15 0 -15 9 0 8 7 15 15 15 8 0 15 -4 15 -9z"/>
<path d="M380 1470 l0 -50 33 1 c31 2 31 2 4 6 -35 5 -34 38 1 37 12 0 22 3
22 8 0 4 -11 8 -25 8 -14 0 -25 5 -25 10 0 6 14 10 31 10 17 0 28 4 24 10 -3
6 -19 10 -36 10 -28 0 -29 -1 -29 -50z"/>
<path d="M460 1469 c0 -49 1 -50 28 -47 24 3 27 7 27 38 1 42 -11 60 -36 60
-16 0 -19 -8 -19 -51z m40 21 c0 -5 -4 -10 -10 -10 -5 0 -10 5 -10 10 0 6 5
10 10 10 6 0 10 -4 10 -10z m7 -43 c-6 -20 -27 -19 -27 2 0 14 5 19 15 14 9
-3 14 -10 12 -16z"/>
<path d="M530 1470 l0 -50 38 1 c30 2 32 3 10 6 -20 3 -28 10 -28 25 0 16 5
19 25 16 14 -3 25 -1 25 3 0 5 -11 9 -25 9 -14 0 -25 5 -25 10 0 6 11 10 25
10 14 0 25 5 25 10 0 6 -16 10 -35 10 l-35 0 0 -50z"/>
<path d="M610 1510 c0 -5 9 -10 20 -10 17 0 20 -7 20 -40 0 -22 5 -40 10 -40
6 0 10 18 10 40 0 33 3 40 20 40 11 0 20 5 20 10 0 6 -22 10 -50 10 -27 0 -50
-4 -50 -10z"/>
<path d="M720 1470 l0 -50 38 1 c30 2 32 3 10 6 -19 3 -28 10 -28 23 0 13 9
20 28 23 l27 4 -27 2 c-33 1 -38 21 -6 21 22 0 78 -45 78 -63 0 -5 -9 -7 -20
-4 -11 3 -20 1 -20 -4 0 -5 11 -9 25 -9 19 0 25 5 25 23 0 12 -9 28 -20 35
-12 7 -18 17 -14 23 4 7 11 6 20 -2 8 -7 14 -7 14 -1 0 16 -31 23 -46 11 -10
-8 -14 -8 -14 0 0 6 -16 11 -35 11 l-35 0 0 -50z"/>
<path d="M2250 1018 l0 -103 36 53 c36 54 89 96 111 87 7 -2 15 0 18 5 9 15
32 12 49 -5 17 -18 25 -18 44 -3 8 7 12 7 12 -1 0 -6 9 -11 21 -11 11 0 18 -4
14 -10 -9 -14 35 -38 77 -43 49 -5 68 -22 68 -64 0 -56 22 -173 33 -173 5 0 7
9 4 20 -3 11 -1 20 4 20 9 0 12 -12 10 -40 -1 -19 8 -32 34 -46 11 -6 24 -23
29 -37 8 -21 4 -31 -25 -61 -18 -20 -39 -36 -46 -36 -7 0 -17 -9 -23 -19 -8
-17 -14 -18 -40 -8 -26 10 -32 8 -50 -11 -33 -35 -118 -17 -167 35 -23 24 -44
33 -25 10 17 -20 -2 -40 -29 -31 -13 4 -28 7 -33 6 -4 -2 -15 3 -22 9 -10 8
-18 9 -25 2 -6 -6 -24 -8 -45 -3 -31 7 -34 6 -34 -16 0 -13 5 -25 10 -25 6 -1
22 -3 38 -5 15 -2 68 -6 117 -8 88 -4 175 -27 175 -48 0 -5 5 -6 10 -3 11 7
13 -6 4 -29 -3 -9 -12 -16 -20 -16 -8 0 -14 -9 -14 -20 0 -11 5 -19 11 -18 20
5 27 -37 13 -77 -7 -23 -9 -45 -5 -54 10 -16 -6 -72 -23 -83 -6 -4 -33 -5 -61
-2 -40 4 -46 2 -31 -7 33 -20 125 -5 216 36 47 21 86 39 87 40 4 2 -25 139
-33 159 -10 25 5 86 21 86 8 0 11 7 8 20 -6 24 17 108 34 122 39 32 95 5 106
-52 5 -24 10 -27 29 -23 13 3 29 11 37 17 12 9 13 6 8 -15 -5 -19 -1 -31 13
-44 11 -10 23 -35 26 -56 4 -21 9 -38 13 -37 22 2 31 -5 31 -23 0 -18 2 -19
15 -9 12 10 15 9 15 -5 0 -10 2 -16 5 -13 3 3 8 132 11 287 5 203 3 285 -5
295 -6 7 -9 21 -5 30 3 9 2 16 -2 17 -5 0 -26 2 -46 3 -21 1 -45 9 -54 18 -14
14 -13 15 11 12 15 -1 32 -7 38 -13 16 -16 31 -13 18 3 -9 11 -9 16 0 22 7 4
9 3 5 -4 -4 -6 4 -16 16 -23 21 -11 22 -11 9 5 -12 15 -12 17 0 14 10 -2 15
10 17 43 l3 46 -98 6 c-54 3 -250 6 -435 6 l-338 1 0 -102z m839 -58 c-6 -5
-18 -6 -26 -3 -19 8 -16 11 13 11 17 0 22 -3 13 -8z"/>
<path d="M2378 985 c-6 -30 -3 -43 8 -33 3 4 4 19 2 35 l-3 28 -7 -30z"/>
<path d="M2458 1001 c8 -4 13 -11 13 -15 -1 -3 -1 -10 -1 -15 0 -9 63 -35 113
-47 27 -6 28 -5 25 22 -3 25 -7 29 -36 30 -18 0 -38 7 -43 15 -8 12 -10 12
-18 -1 -8 -12 -12 -12 -29 3 -10 9 -23 17 -28 17 -5 0 -3 -4 4 -9z"/>
<path d="M3027 999 c7 -7 15 -10 18 -7 3 3 -2 9 -12 12 -14 6 -15 5 -6 -5z"/>
<path d="M2420 979 c0 -5 5 -7 10 -4 6 3 10 8 10 11 0 2 -4 4 -10 4 -5 0 -10
-5 -10 -11z"/>
<path d="M2474 922 c-27 -18 -35 -51 -19 -82 9 -16 19 -30 24 -30 5 0 8 -8 8
-17 0 -60 11 -69 31 -25 10 23 10 29 -3 38 -9 7 -17 33 -20 64 -6 60 -6 62
-21 52z m6 -85 c0 -5 -4 -5 -10 -2 -5 3 -10 14 -10 23 0 15 2 15 10 2 5 -8 10
-19 10 -23z"/>
<path d="M2040 880 c-12 -8 -12 -10 5 -10 11 -1 44 -3 73 -6 42 -3 52 -1 52
11 0 12 -13 15 -57 15 -32 0 -65 -5 -73 -10z"/>
<path d="M1445 873 c-64 -8 -241 -35 -262 -40 -40 -9 -26 -63 16 -63 12 0 9
30 -3 31 -14 1 24 17 42 18 7 1 10 -3 7 -9 -3 -5 1 -10 9 -10 9 0 16 7 16 16
0 13 7 15 35 11 19 -3 35 -2 35 2 0 4 17 13 38 19 76 23 188 -27 228 -101 9
-16 15 -14 56 23 47 41 137 89 173 91 11 1 -2 5 -30 9 -50 8 -304 10 -360 3z"/>
<path d="M2545 849 c-10 -15 -4 -18 48 -28 38 -7 47 -6 47 6 0 25 -82 45 -95
22z"/>
<path d="M2425 800 c-3 -5 1 -10 10 -10 9 0 13 5 10 10 -3 6 -8 10 -10 10 -2
0 -7 -4 -10 -10z"/>
<path d="M2276 745 c-19 -14 -18 -15 11 -15 35 0 52 15 27 24 -19 7 -15 8 -38
-9z"/>
<path d="M2308 719 c-7 -5 -23 -9 -35 -9 -18 0 -23 -6 -23 -26 0 -14 4 -23 10
-19 5 3 7 12 3 20 -3 8 0 15 6 15 6 0 11 -6 11 -14 0 -7 10 -16 23 -20 32 -8
47 -7 47 4 0 6 -14 10 -31 10 -16 0 -28 4 -25 8 7 12 69 2 81 -13 5 -6 23 -17
39 -23 24 -11 28 -11 23 3 -4 8 -2 15 4 15 5 0 14 -10 19 -22 5 -13 9 -18 9
-11 1 9 11 9 42 -2 22 -8 48 -13 57 -11 32 6 52 18 52 31 0 7 6 16 13 19 26
11 -26 28 -96 30 -40 2 -90 8 -112 14 -46 13 -97 13 -117 1z m273 -49 c5 0 8
-10 8 -22 -1 -17 -2 -19 -6 -5 -2 9 -11 17 -18 17 -8 0 -17 5 -21 12 -5 8 -2
9 10 5 10 -4 22 -7 27 -7z m-31 -26 c0 -2 -9 -4 -20 -4 -11 0 -20 4 -20 9 0 5
9 7 20 4 11 -3 20 -7 20 -9z"/>
<path d="M1910 710 c-36 -4 -94 -8 -130 -9 -36 -1 -72 -6 -80 -11 -17 -12 239
-6 350 7 l65 8 -49 8 c-53 8 -59 8 -156 -3z"/>
<path d="M2125 710 c-7 -12 2 -12 30 0 19 8 19 9 -2 9 -12 1 -25 -3 -28 -9z"/>
<path d="M1515 685 c-22 -7 -69 -21 -105 -30 -36 -10 -76 -25 -90 -34 -14 -9
-54 -28 -90 -43 -51 -21 -66 -31 -68 -50 -3 -34 11 -52 34 -40 39 20 133 55
244 92 102 35 115 42 124 67 5 15 13 34 19 41 12 16 -14 15 -68 -3z"/>
<path d="M2756 688 c-3 -7 -7 -26 -10 -43 -6 -28 -5 -29 9 -11 8 11 15 30 15
43 0 25 -8 31 -14 11z"/>
<path d="M2674 672 c-31 -18 -35 -42 -8 -42 9 0 13 -4 10 -9 -8 -12 18 -21 34
-11 10 6 9 9 -1 13 -11 4 -10 8 5 19 12 9 17 21 13 32 -8 20 -14 19 -53 -2z"/>
<path d="M1605 670 c-3 -5 3 -10 14 -10 12 0 21 5 21 10 0 6 -6 10 -14 10 -8
0 -18 -4 -21 -10z"/>
<path d="M1805 635 c97 -25 144 -20 87 9 -21 11 -55 16 -104 15 l-73 -1 90
-23z"/>
<path d="M2118 633 c12 -2 30 -2 40 0 9 3 -1 5 -23 4 -22 0 -30 -2 -17 -4z"/>
<path d="M110 613 c0 -9 6 -13 15 -9 10 3 15 -1 15 -11 0 -13 3 -14 12 -5 9 9
9 15 0 24 -18 18 -42 18 -42 1z"/>
<path d="M1668 593 c6 -2 18 -2 25 0 6 3 1 5 -13 5 -14 0 -19 -2 -12 -5z"/>
<path d="M1628 583 c7 -3 16 -2 19 1 4 3 -2 6 -13 5 -11 0 -14 -3 -6 -6z"/>
<path d="M1770 571 c-56 -10 -10 -17 125 -18 l120 -2 -85 14 c-94 15 -109 15
-160 6z"/>
<path d="M759 565 c-3 -2 -39 -6 -80 -9 -94 -6 -129 -19 -129 -46 0 -17 -3
-19 -19 -10 -38 20 -211 2 -211 -22 0 -5 6 -8 13 -6 7 2 28 -14 46 -34 18 -20
38 -35 46 -32 7 3 16 0 20 -6 6 -9 9 -9 15 0 6 10 15 10 44 0 42 -13 44 -22
14 -43 l-23 -16 32 0 c17 -1 34 -5 38 -10 7 -12 72 -3 105 15 47 26 121 54
115 44 -4 -6 -35 -25 -71 -42 -52 -26 -64 -36 -64 -55 0 -16 -5 -23 -12 -20
-7 2 -12 12 -12 21 2 23 -47 21 -76 -4 -13 -11 -34 -23 -47 -26 -13 -4 -23 -9
-23 -13 0 -9 -45 -31 -61 -31 -6 0 -15 14 -20 30 -14 39 -46 39 -118 0 -75
-42 -86 -31 -85 86 0 73 -2 84 -15 79 -9 -4 -37 -11 -63 -17 l-48 -11 0 -174
0 -174 203 3 202 3 300 160 c233 124 300 164 300 179 0 14 -38 40 -150 103
-151 84 -158 87 -166 78z m-146 -82 c19 -18 101 -27 90 -10 -7 12 57 -1 75
-16 18 -14 -45 -80 -68 -71 -8 3 -22 7 -30 9 -8 2 -17 4 -20 5 -3 1 -18 3 -35
3 -26 2 -30 6 -33 32 -2 17 -8 34 -13 40 -26 27 4 34 34 8z m227 -63 c0 -5 -8
-10 -17 -10 -15 0 -16 2 -3 10 19 12 20 12 20 0z"/>
<path d="M1516 551 c-17 -11 -47 -23 -68 -26 -41 -7 -51 -22 -18 -27 18 -3 16
-7 -19 -45 -44 -49 -80 -55 -121 -23 -26 21 -56 27 -45 10 7 -11 -40 -56 -67
-65 -16 -6 -18 -23 -18 -171 l0 -164 461 0 c306 0 475 4 505 11 l44 11 1 72
c5 282 3 357 -11 367 -12 7 -18 1 -29 -26 -9 -23 -23 -38 -38 -41 -28 -7 -161
25 -179 43 -7 7 -16 13 -19 13 -4 0 -19 9 -35 20 -15 11 -29 17 -32 15 -2 -2
-22 2 -45 10 -36 12 -49 12 -98 0 -31 -8 -73 -15 -95 -15 -34 0 -39 3 -42 25
l-3 25 -29 -19z"/>
<path d="M2043 563 c9 -2 25 -2 35 0 9 3 1 5 -18 5 -19 0 -27 -2 -17 -5z"/>
<path d="M290 463 c5 -2 10 -13 10 -24 0 -16 -3 -18 -19 -9 -24 12 -41 13 -41
1 0 -7 51 -31 67 -31 11 0 -4 64 -15 66 -7 1 -8 0 -2 -3z"/>
<path d="M288 342 c-16 -10 -28 -23 -28 -31 0 -10 5 -10 25 3 30 20 105 19
111 -1 14 -45 10 -43 60 -28 26 8 50 18 53 22 4 4 4 7 2 6 -2 -2 -10 2 -18 8
-9 9 -21 8 -42 0 -25 -11 -33 -9 -66 13 -43 30 -59 31 -97 8z"/>
<path d="M2273 353 c-13 -2 -23 -8 -23 -12 0 -9 97 -21 164 -21 38 0 39 1 23
17 -13 13 -19 15 -29 5 -14 -14 -32 -16 -24 -3 3 5 -11 11 -32 15 -39 6 -43 6
-79 -1z"/>
<path d="M2846 341 c-3 -4 3 -16 14 -26 20 -18 25 -11 14 19 -7 18 -20 21 -28
7z"/>
<path d="M2465 330 c-3 -5 1 -10 10 -10 9 0 13 5 10 10 -3 6 -8 10 -10 10 -2
0 -7 -4 -10 -10z"/>
<path d="M2465 300 c-15 -5 -12 -8 14 -13 45 -9 63 -9 57 2 -8 12 -49 19 -71
11z"/>
<path d="M2890 300 c0 -5 5 -11 10 -11 6 -1 15 -3 20 -4 6 -1 17 -3 25 -4 8 0
15 -8 15 -17 0 -8 4 -13 9 -10 5 3 23 0 40 -7 31 -13 101 -11 101 3 0 11 -35
20 -94 26 -28 2 -57 11 -66 19 -19 17 -60 20 -60 5z"/>
<path d="M2318 293 c7 -3 16 -2 19 1 4 3 -2 6 -13 5 -11 0 -14 -3 -6 -6z"/>
<path d="M2886 231 c-3 -5 3 -11 14 -14 13 -3 20 0 20 9 0 15 -26 19 -34 5z"/>
<path d="M2913 175 c-29 -25 -18 -34 18 -14 13 7 24 7 32 1 8 -7 19 -4 34 8
19 15 20 19 7 24 -31 12 -64 5 -91 -19z"/>
<path d="M2285 181 c6 -5 39 -11 75 -15 57 -4 59 -4 20 4 -95 19 -104 20 -95
11z"/>
<path d="M2430 160 c0 -5 5 -10 10 -10 6 0 10 5 10 10 0 6 -4 10 -10 10 -5 0
-10 -4 -10 -10z"/>
<path d="M3085 130 c-3 -5 -1 -10 4 -10 6 0 11 5 11 10 0 6 -2 10 -4 10 -3 0
-8 -4 -11 -10z"/>
</g>
</svg>
